<svg width="81" height="17" viewBox="0 0 81 17" fill="none" xmlns="http://www.w3.org/2000/svg">
<path d="M8.20312 12.6133C8.82031 12.6133 9.55859 12.4609 10.418 12.1562V15.4961C9.80078 15.7617 9.21094 15.9492 8.64844 16.0586C8.09375 16.1758 7.44141 16.2344 6.69141 16.2344C5.15234 16.2344 4.04297 15.8594 3.36328 15.1094C2.68359 14.3516 2.34375 13.1914 2.34375 11.6289V6.15625H0.738281V4.29297L2.77734 2.85156L3.96094 0.0625H6.96094V2.72266H10.2188V6.15625H6.96094V11.3242C6.96094 12.1836 7.375 12.6133 8.20312 12.6133ZM21.5484 16.2344C19.3375 16.2344 17.6187 15.6484 16.3922 14.4766C15.1734 13.2969 14.5641 11.6211 14.5641 9.44922C14.5641 7.20703 15.1305 5.48828 16.2633 4.29297C17.3961 3.08984 19.0133 2.48828 21.1148 2.48828C23.1148 2.48828 24.6578 3.01172 25.7437 4.05859C26.8375 5.09766 27.3844 6.59766 27.3844 8.55859V10.5977H19.193C19.2242 11.3398 19.4937 11.9219 20.0016 12.3438C20.5172 12.7656 21.2164 12.9766 22.0992 12.9766C22.9039 12.9766 23.6422 12.9023 24.3141 12.7539C24.9937 12.5977 25.7281 12.3359 26.5172 11.9688V15.2617C25.7984 15.6289 25.0562 15.8828 24.2906 16.0234C23.525 16.1641 22.6109 16.2344 21.5484 16.2344ZM21.2789 5.60547C20.7398 5.60547 20.2867 5.77734 19.9195 6.12109C19.5602 6.45703 19.3492 6.98828 19.2867 7.71484H23.2242C23.2086 7.07422 23.025 6.5625 22.6734 6.17969C22.3297 5.79688 21.8648 5.60547 21.2789 5.60547ZM41.0344 16L40.1555 14.2422H40.0617C39.4445 15.0078 38.8156 15.5312 38.175 15.8125C37.5344 16.0938 36.7062 16.2344 35.6906 16.2344C34.4406 16.2344 33.4562 15.8594 32.7375 15.1094C32.0187 14.3594 31.6594 13.3047 31.6594 11.9453C31.6594 10.5312 32.1516 9.48047 33.1359 8.79297C34.1203 8.09766 35.5461 7.70703 37.4133 7.62109L39.6281 7.55078V7.36328C39.6281 6.26953 39.0891 5.72266 38.0109 5.72266C37.0422 5.72266 35.8117 6.05078 34.3195 6.70703L32.9953 3.68359C34.5422 2.88672 36.4953 2.48828 38.8547 2.48828C40.5578 2.48828 41.8742 2.91016 42.8039 3.75391C43.7414 4.59766 44.2102 5.77734 44.2102 7.29297V16H41.0344ZM37.6359 13C38.1906 13 38.6633 12.8242 39.0539 12.4727C39.4523 12.1211 39.6516 11.6641 39.6516 11.1016V10.0703L38.5969 10.1172C37.0891 10.1719 36.3352 10.7266 36.3352 11.7812C36.3352 12.5938 36.7687 13 37.6359 13ZM66.0281 16V8.78125C66.0281 7.88281 65.9031 7.21094 65.6531 6.76562C65.4109 6.3125 65.0242 6.08594 64.493 6.08594C63.7898 6.08594 63.2742 6.38672 62.9461 6.98828C62.618 7.58984 62.4539 8.53125 62.4539 9.8125V16H57.8602V8.78125C57.8602 7.88281 57.743 7.21094 57.5086 6.76562C57.2742 6.3125 56.8953 6.08594 56.3719 6.08594C55.6531 6.08594 55.1297 6.40625 54.8016 7.04688C54.4734 7.6875 54.3094 8.73438 54.3094 10.1875V16H49.7273V2.72266H53.1844L53.7586 4.36328H54.0281C54.3797 3.75391 54.8875 3.28906 55.5516 2.96875C56.2234 2.64844 56.9852 2.48828 57.8367 2.48828C59.7508 2.48828 61.0945 3.07031 61.868 4.23438H62.2313C62.6063 3.6875 63.1258 3.26172 63.7898 2.95703C64.4617 2.64453 65.2 2.48828 66.0047 2.48828C67.575 2.48828 68.7352 2.89062 69.4852 3.69531C70.2352 4.5 70.6102 5.72266 70.6102 7.36328V16H66.0281Z" fill="#F5F7FA"/>
<path d="M75.5531 14.0547C75.5531 13.3359 75.7641 12.7812 76.1859 12.3906C76.6156 12 77.2367 11.8047 78.0492 11.8047C78.8227 11.8047 79.4164 12 79.8305 12.3906C80.2445 12.7812 80.4516 13.3359 80.4516 14.0547C80.4516 14.7578 80.2367 15.3086 79.807 15.707C79.3852 16.0977 78.7992 16.293 78.0492 16.293C77.2758 16.293 76.6664 16.0977 76.2211 15.707C75.7758 15.3164 75.5531 14.7656 75.5531 14.0547Z" fill="#7E10ED"/>
</svg>
