<svg width="92" height="15" viewBox="0 0 92 15" fill="none" xmlns="http://www.w3.org/2000/svg">
<g clip-path="url(#clip0_1158_205)">
<path d="M8.2244 0.777965L9.9162 4.206C10.0338 4.44442 10.2613 4.60963 10.5245 4.6478L14.3076 5.19755C14.9703 5.29392 15.2347 6.10807 14.7554 6.57521L12.0179 9.24355C11.8277 9.42909 11.7407 9.69661 11.7857 9.9585L12.4318 13.7263C12.5451 14.3862 11.8524 14.8894 11.2598 14.578L7.87615 12.7992C7.64085 12.6756 7.35956 12.6756 7.12427 12.7992L3.74067 14.578C3.14805 14.8897 2.45531 14.3862 2.56858 13.7263L3.2147 9.9585C3.25975 9.69661 3.17277 9.42909 2.98253 9.24355L0.245047 6.57521C-0.234302 6.10775 0.030091 5.29361 0.692794 5.19755L4.47596 4.6478C4.7391 4.60963 4.96657 4.44442 5.08422 4.206L6.77602 0.777965C7.07202 0.177527 7.92809 0.177527 8.2244 0.777965Z" fill="#FFB300"/>
</g>
<g clip-path="url(#clip1_1158_205)">
<path d="M27.3909 0.777965L29.0827 4.206C29.2003 4.44442 29.4278 4.60963 29.691 4.6478L33.4741 5.19755C34.1368 5.29392 34.4012 6.10807 33.9219 6.57521L31.1844 9.24355C30.9942 9.42909 30.9072 9.69661 30.9522 9.9585L31.5983 13.7263C31.7116 14.3862 31.0189 14.8894 30.4263 14.578L27.0427 12.7992C26.8074 12.6756 26.5261 12.6756 26.2908 12.7992L22.9072 14.578C22.3146 14.8897 21.6218 14.3862 21.7351 13.7263L22.3812 9.9585C22.4263 9.69661 22.3393 9.42909 22.149 9.24355L19.4116 6.57521C18.9322 6.10775 19.1966 5.29361 19.8593 5.19755L23.6425 4.6478C23.9056 4.60963 24.1331 4.44442 24.2507 4.206L25.9425 0.777965C26.2385 0.177527 27.0946 0.177527 27.3909 0.777965Z" fill="#FFB300"/>
</g>
<g clip-path="url(#clip2_1158_205)">
<path d="M46.5579 0.777965L48.2497 4.206C48.3673 4.44442 48.5948 4.60963 48.858 4.6478L52.6411 5.19755C53.3038 5.29392 53.5682 6.10807 53.0889 6.57521L50.3514 9.24355C50.1611 9.42909 50.0742 9.69661 50.1192 9.9585L50.7653 13.7263C50.8786 14.3862 50.1859 14.8894 49.5932 14.578L46.2096 12.7992C45.9744 12.6756 45.6931 12.6756 45.4578 12.7992L42.0742 14.578C41.4815 14.8897 40.7888 14.3862 40.9021 13.7263L41.5482 9.9585C41.5932 9.69661 41.5063 9.42909 41.316 9.24355L38.5785 6.57521C38.0992 6.10775 38.3636 5.29361 39.0263 5.19755L42.8095 4.6478C43.0726 4.60963 43.3001 4.44442 43.4177 4.206L45.1095 0.777965C45.4055 0.177527 46.2616 0.177527 46.5579 0.777965Z" fill="#FFB300"/>
</g>
<g clip-path="url(#clip3_1158_205)">
<path d="M65.7244 0.777965L67.4162 4.206C67.5338 4.44442 67.7613 4.60963 68.0245 4.6478L71.8076 5.19755C72.4703 5.29392 72.7347 6.10807 72.2554 6.57521L69.5179 9.24355C69.3277 9.42909 69.2407 9.69661 69.2857 9.9585L69.9318 13.7263C70.0451 14.3862 69.3524 14.8894 68.7598 14.578L65.3761 12.7992C65.1409 12.6756 64.8596 12.6756 64.6243 12.7992L61.2407 14.578C60.6481 14.8897 59.9553 14.3862 60.0686 13.7263L60.7147 9.9585C60.7598 9.69661 60.6728 9.42909 60.4825 9.24355L57.745 6.57521C57.2657 6.10775 57.5301 5.29361 58.1928 5.19755L61.976 4.6478C62.2391 4.60963 62.4666 4.44442 62.5842 4.206L64.276 0.777965C64.572 0.177527 65.4281 0.177527 65.7244 0.777965Z" fill="#FFB300"/>
</g>
<g clip-path="url(#clip4_1158_205)">
<path d="M84.8911 0.777965L86.5829 4.206C86.7006 4.44442 86.9281 4.60963 87.1912 4.6478L90.9744 5.19755C91.6371 5.29392 91.9015 6.10807 91.4221 6.57521L88.6846 9.24355C88.4944 9.42909 88.4074 9.69661 88.4525 9.9585L89.0986 13.7263C89.2119 14.3862 88.5191 14.8894 87.9265 14.578L84.5429 12.7992C84.3076 12.6756 84.0263 12.6756 83.791 12.7992L80.4074 14.578C79.8148 14.8897 79.1221 14.3862 79.2353 13.7263L79.8814 9.9585C79.9265 9.69661 79.8395 9.42909 79.6493 9.24355L76.9118 6.57521C76.4324 6.10775 76.6968 5.29361 77.3595 5.19755L81.1427 4.6478C81.4058 4.60963 81.6333 4.44442 81.751 4.206L83.4428 0.777965C83.7388 0.177527 84.5948 0.177527 84.8911 0.777965Z" fill="#FFB300"/>
</g>
<defs>
<clipPath id="clip0_1158_205">
<rect width="15" height="15" fill="white"/>
</clipPath>
<clipPath id="clip1_1158_205">
<rect width="15" height="15" fill="white" transform="translate(19.1665)"/>
</clipPath>
<clipPath id="clip2_1158_205">
<rect width="15" height="15" fill="white" transform="translate(38.3335)"/>
</clipPath>
<clipPath id="clip3_1158_205">
<rect width="15" height="15" fill="white" transform="translate(57.5)"/>
</clipPath>
<clipPath id="clip4_1158_205">
<rect width="15" height="15" fill="white" transform="translate(76.6667)"/>
</clipPath>
</defs>
</svg>
